<svg width="27" height="33" fill="none" xmlns="http://www.w3.org/2000/svg"><path d="M14.828 30.769l1.103 1.016-1.103-1.016zm-2.322 0l-1.104 1.016 1.104-1.016zm11.327-17.102c0 .97-.365 2.25-1.082 3.768-.706 1.492-1.692 3.09-2.793 4.665-2.202 3.147-4.777 6.07-6.234 7.653l2.207 2.032c1.495-1.623 4.172-4.659 6.485-7.965 1.156-1.652 2.244-3.404 3.047-5.104.791-1.674 1.37-3.427 1.37-5.05h-3zM13.61 29.753c-1.457-1.582-4.032-4.506-6.234-7.653-1.101-1.574-2.087-3.173-2.792-4.666-.718-1.517-1.083-2.797-1.083-3.767h-3c0 1.622.58 3.375 1.37 5.05.804 1.7 1.891 3.45 3.047 5.103 2.313 3.306 4.99 6.341 6.485 7.965l2.207-2.032zM3.5 13.667C3.5 8.052 8.052 3.5 13.667 3.5v-3C6.395.5.5 6.395.5 13.667h3zM13.667 3.5c5.615 0 10.166 4.552 10.166 10.167h3C26.833 6.395 20.938.5 13.667.5v3zm.057 26.253a.1.1 0 01-.033.025.062.062 0 01-.049 0 .1.1 0 01-.033-.025l-2.207 2.032a3.067 3.067 0 004.53 0l-2.208-2.032zm3.443-16.086a3.5 3.5 0 01-3.5 3.5v3a6.5 6.5 0 006.5-6.5h-3zm-3.5 3.5a3.5 3.5 0 01-3.5-3.5h-3a6.5 6.5 0 006.5 6.5v-3zm-3.5-3.5a3.5 3.5 0 013.5-3.5v-3a6.5 6.5 0 00-6.5 6.5h3zm3.5-3.5a3.5 3.5 0 013.5 3.5h3a6.5 6.5 0 00-6.5-6.5v3z" fill="#FF7A00"/></svg>