<svg width="48" height="48" fill="none" xmlns="http://www.w3.org/2000/svg"><g filter="url(#filter0_d_422_4982)"><circle cx="24" cy="22" r="21" fill="#0C1D37" stroke="#FF7A00" stroke-width="2"/><g opacity=".6"><path d="M24.133 30.462l9.88-3.903V28.2l-9.88 3.904v-1.643z" fill="#7A8396"/><path d="M24.128 30.462l9.88-3.904-10.347-2.665-9.88 3.903 10.347 2.666z" fill="#9A9EB0"/><g style="mix-blend-mode:multiply"><mask id="mask0_422_4982" style="mask-type:alpha" maskUnits="userSpaceOnUse" x="13" y="23" width="22" height="8"><path d="M24.128 30.462l9.88-3.904-10.347-2.665-9.88 3.903 10.347 2.666z" fill="#9A9EB0"/></mask><g style="mix-blend-mode:multiply" filter="url(#filter1_f_422_4982)" mask="url(#mask0_422_4982)"><path d="M24.084 29.123l7.868-3.108-8.24-2.122L15.844 27l8.24 2.122z" fill="#9A9EB0"/></g></g><path d="M24.128 30.463l-10.347-2.666v1.642l10.347 2.666v-1.642z" fill="#BCC3D3"/></g><g opacity=".7"><path d="M24.133 27.517l9.88-3.904v1.643l-9.88 3.904v-1.643z" fill="#7A8396"/><path d="M24.128 27.517l9.88-3.904-10.347-2.666-9.88 3.904 10.347 2.666z" fill="#9A9EB0"/><g style="mix-blend-mode:multiply"><mask id="mask1_422_4982" style="mask-type:alpha" maskUnits="userSpaceOnUse" x="13" y="20" width="22" height="8"><path d="M24.128 27.517l9.88-3.904-10.347-2.666-9.88 3.904 10.347 2.666z" fill="#9A9EB0"/></mask><g style="mix-blend-mode:multiply" filter="url(#filter2_f_422_4982)" mask="url(#mask1_422_4982)"><path d="M24.084 26.178l7.868-3.108-8.24-2.123-7.868 3.108 8.24 2.123z" fill="#9A9EB0"/></g></g><path d="M24.128 27.517l-10.347-2.665v1.642l10.347 2.666v-1.643z" fill="#BCC3D3"/></g><g opacity=".8"><path d="M24.133 24.463l9.88-3.903v1.642l-9.88 3.904v-1.643z" fill="#7A8396"/><path d="M24.128 24.463l9.88-3.904-10.347-2.665-9.88 3.903 10.347 2.666z" fill="#9A9EB0"/><g style="mix-blend-mode:multiply"><mask id="mask2_422_4982" style="mask-type:alpha" maskUnits="userSpaceOnUse" x="13" y="17" width="22" height="8"><path d="M24.128 24.463l9.88-3.904-10.347-2.665-9.88 3.903 10.347 2.666z" fill="#9A9EB0"/></mask><g style="mix-blend-mode:multiply" filter="url(#filter3_f_422_4982)" mask="url(#mask2_422_4982)"><path d="M24.084 23.124l7.868-3.108-8.24-2.122-7.868 3.108 8.24 2.122z" fill="#9A9EB0"/></g></g><path d="M24.128 24.463l-10.347-2.666v1.642l10.347 2.666v-1.642z" fill="#BCC3D3"/></g><g opacity=".9"><path d="M24.133 21.41l9.88-3.904v1.642l-9.88 3.904V21.41z" fill="#7A8396"/><path d="M24.128 21.41l9.88-3.904L23.66 14.84l-9.88 3.904 10.347 2.665z" fill="#9A9EB0"/><g style="mix-blend-mode:multiply"><mask id="mask3_422_4982" style="mask-type:alpha" maskUnits="userSpaceOnUse" x="13" y="14" width="22" height="8"><path d="M24.128 21.41l9.88-3.904L23.66 14.84l-9.88 3.904 10.347 2.665z" fill="#9A9EB0"/></mask><g style="mix-blend-mode:multiply" filter="url(#filter4_f_422_4982)" mask="url(#mask3_422_4982)"><path d="M24.084 20.07l7.868-3.108-8.24-2.122-7.868 3.108 8.24 2.122z" fill="#9A9EB0"/></g></g><path d="M24.128 21.41l-10.347-2.666v1.643l10.347 2.665V21.41z" fill="#BCC3D3"/></g><path d="M24.133 18.357l9.88-3.904v1.643l-9.88 3.903v-1.642z" fill="#7A8396"/><path d="M24.128 18.357l9.88-3.904-10.347-2.666-9.88 3.904 10.347 2.666z" fill="#9A9EB0"/><path d="M24.128 18.357l-10.347-2.666v1.643L24.128 20v-1.643z" fill="#BCC3D3"/></g><defs><filter id="filter0_d_422_4982" x="0" y="0" width="48" height="48" filterUnits="userSpaceOnUse" color-interpolation-filters="sRGB"><feFlood flood-opacity="0" result="BackgroundImageFix"/><feColorMatrix in="SourceAlpha" values="0 0 0 0 0 0 0 0 0 0 0 0 0 0 0 0 0 0 127 0" result="hardAlpha"/><feOffset dy="2"/><feGaussianBlur stdDeviation="1"/><feComposite in2="hardAlpha" operator="out"/><feColorMatrix values="0 0 0 0 0 0 0 0 0 0 0 0 0 0 0 0 0 0 0.25 0"/><feBlend in2="BackgroundImageFix" result="effect1_dropShadow_422_4982"/><feBlend in="SourceGraphic" in2="effect1_dropShadow_422_4982" result="shape"/></filter><filter id="filter1_f_422_4982" x="14.39" y="22.439" width="19.015" height="8.138" filterUnits="userSpaceOnUse" color-interpolation-filters="sRGB"><feFlood flood-opacity="0" result="BackgroundImageFix"/><feBlend in="SourceGraphic" in2="BackgroundImageFix" result="shape"/><feGaussianBlur stdDeviation=".727" result="effect1_foregroundBlur_422_4982"/></filter><filter id="filter2_f_422_4982" x="14.39" y="19.494" width="19.015" height="8.138" filterUnits="userSpaceOnUse" color-interpolation-filters="sRGB"><feFlood flood-opacity="0" result="BackgroundImageFix"/><feBlend in="SourceGraphic" in2="BackgroundImageFix" result="shape"/><feGaussianBlur stdDeviation=".727" result="effect1_foregroundBlur_422_4982"/></filter><filter id="filter3_f_422_4982" x="14.39" y="16.44" width="19.015" height="8.138" filterUnits="userSpaceOnUse" color-interpolation-filters="sRGB"><feFlood flood-opacity="0" result="BackgroundImageFix"/><feBlend in="SourceGraphic" in2="BackgroundImageFix" result="shape"/><feGaussianBlur stdDeviation=".727" result="effect1_foregroundBlur_422_4982"/></filter><filter id="filter4_f_422_4982" x="14.39" y="13.386" width="19.015" height="8.138" filterUnits="userSpaceOnUse" color-interpolation-filters="sRGB"><feFlood flood-opacity="0" result="BackgroundImageFix"/><feBlend in="SourceGraphic" in2="BackgroundImageFix" result="shape"/><feGaussianBlur stdDeviation=".727" result="effect1_foregroundBlur_422_4982"/></filter></defs></svg>