<svg width="83" height="82" fill="none" xmlns="http://www.w3.org/2000/svg"><path d="M31.34 26.908c-7.754-.8-15.877 1.661-21.785 7.569-3.753 3.63-6.092 8.123-7.2 12.8 2.154 1.969 4.37 4 6.524 6.03l22.461-26.4zM55.647 49.8L28.324 72.384c2.339 2.4 4.616 4.8 6.831 7.2 4.738-1.046 9.292-3.384 12.985-7.077A25.943 25.943 0 0055.647 49.8zm-39.385-4.308L36.2 65.184l29.293-24.246A39.907 39.907 0 0079.4 2.908C65.431.383 50.6 5.122 40.816 16.569L16.262 45.492zm3.138 25.6c-2.523 2.523-15.323 6.093-15.323 6.093-.185.184 3.57-12.616 6.154-15.139 2.523-2.523 6.646-2.523 9.23 0 2.462 2.523 2.462 6.585-.061 9.046z" fill="#FF7A00" stroke="#fff" stroke-width="4" stroke-linejoin="round"/><path d="M70.11 12.077a66.584 66.584 0 018.185 9.723c1.847-6.092 2.277-12.615 1.108-18.892-6.4-1.17-12.985-.8-19.2 1.046a71.542 71.542 0 019.908 8.123zm-5.045 17.661c-3.57 3.508-9.354 3.508-12.923 0-3.57-3.507-3.57-9.23 0-12.8 3.569-3.507 9.354-3.507 12.923 0 3.57 3.57 3.57 9.293 0 12.8z" fill="#FF7A00" stroke="#fff" stroke-width="4" stroke-linejoin="round"/><path d="M21.246 38.292l22.277 21.97" stroke="#fff" stroke-width="4" stroke-linejoin="round"/></svg>