<svg width="53" height="52" fill="none" xmlns="http://www.w3.org/2000/svg"><path d="M20.136 17.283c-4.851-.5-9.934 1.04-13.63 4.736-2.35 2.272-3.813 5.083-4.506 8.01a364.35 364.35 0 014.082 3.773l14.054-16.519zm15.211 14.324L18.25 45.74a230.43 230.43 0 014.274 4.505c2.965-.654 5.815-2.117 8.125-4.428a16.233 16.233 0 004.698-14.209zM10.7 28.913l12.475 12.322 18.329-15.172a24.97 24.97 0 008.702-23.796c-8.74-1.579-18.02 1.386-24.143 8.548L10.7 28.913zm1.966 16.017c-1.578 1.58-9.588 3.813-9.588 3.813-.115.115 2.234-7.894 3.85-9.473 1.58-1.578 4.16-1.578 5.777 0 1.54 1.58 1.54 4.12-.039 5.66z" stroke="#FF7A00" stroke-width="3" stroke-linejoin="round"/><path d="M44.395 8.004a41.673 41.673 0 015.121 6.084c1.155-3.812 1.425-7.894.693-11.822a25.882 25.882 0 00-12.014.655 44.77 44.77 0 016.2 5.083zm-3.157 11.051c-2.233 2.195-5.853 2.195-8.086 0-2.234-2.195-2.234-5.776 0-8.009 2.233-2.195 5.852-2.195 8.086 0 2.233 2.233 2.233 5.814 0 8.01zM13.82 24.407l13.94 13.747" stroke="#FF7A00" stroke-width="3" stroke-linejoin="round"/></svg>