<svg width="82" height="82" fill="none" xmlns="http://www.w3.org/2000/svg"><path d="M64.938 18.846v-5.908c0-3.016 2.461-5.416 5.476-5.416 3.016 0 5.477 2.4 5.477 5.416v5.908H64.937z" stroke="#FF7A00" stroke-width="4" stroke-linejoin="round"/><path d="M52.074 7.522h17.662c-2.708.308-4.8 2.585-4.8 5.354V31.83M14 70.39V71v-5m50.937 2.63v5.785c0 2.769-2.092 5.046-4.8 5.353H9.43" stroke="#FF7A00" stroke-width="4" stroke-linejoin="round"/><path d="M54.907 71.645v2.708c0 2.77 2.092 5.046 4.8 5.354H8.999c-2.707-.308-4.8-2.585-4.8-5.354v-2.707h50.708zm10.031-58.707c0-3.016 2.461-5.416 5.476-5.416 3.016 0 5.477 2.4 5.477 5.416v7.57" stroke="#FF7A00" stroke-width="4" stroke-linejoin="round"/><path d="M54.906 69.984v4.37c0 2.768 2.462 5.353 5.108 5.353M46.23 60.754a.683.683 0 01-.676.677H2.907a.683.683 0 01-.677-.677V2.907c0-.369.308-.677.677-.677h42.585c.37 0 .677.308.677.677v57.847h.062z" stroke="#FF7A00" stroke-width="4" stroke-linejoin="round"/><path d="M46.23 9.984v44.123c0 .37-.307.677-.676.677H2.907a.683.683 0 01-.677-.676V9.983" stroke="#FF7A00" stroke-width="4" stroke-linejoin="round"/><path d="M39.337 11.153H9.12v7.631h30.215v-7.63zM7.832 26.538h5.538m3.571 0h5.539m3.504 0h5.539m3.508 0h5.539M7.832 33.37h5.538m3.571 0h5.539m3.504 0h5.539m3.508 0h5.539M7.832 40.138h5.538m3.571 0h5.539m3.504 0h5.539m3.508 0h5.539M7.832 46.969h5.538m3.571 0h5.539m3.504 0h5.539m3.508 0h5.539m37.536 3.816c0 7.261-5.908 13.169-13.23 13.169-7.324 0-13.232-5.908-13.232-13.17 0-7.261 5.908-13.169 13.231-13.169 7.262-.061 13.231 5.846 13.231 13.17z" stroke="#FF7A00" stroke-width="4" stroke-linejoin="round"/><path d="M64.814 56.077V43.893l-4.185 4.369m1.293 7.754h5.723m8.245-31.139v10.585m5.354-5.293H70.598" stroke="#FF7A00" stroke-width="4" stroke-linejoin="round"/></svg>