<svg width="71" height="86" fill="none" xmlns="http://www.w3.org/2000/svg"><path d="M55.025 62.497l5.408 12.491-10.366-.322-6.954 7.598-3.863-8.821m-5.15-5.538l-5.86 14.359-7.083-7.47-10.302.516 3.284-8.242" stroke="#FF7A00" stroke-width="4"/><path d="M69 35.325c0 1.675-3.09 3.091-3.348 4.7-.258 1.675 2.253 3.928 1.738 5.538-.515 1.61-3.927 1.996-4.636 3.477-.772 1.48.902 4.443-.064 5.795-.966 1.352-4.314.708-5.537 1.867-1.16 1.159-.515 4.507-1.867 5.473-1.353.966-4.314-.644-5.795.064-1.481.773-1.867 4.121-3.477 4.636-1.546.515-3.864-1.931-5.538-1.674-1.61.258-3.09 3.284-4.764 3.284-1.674 0-3.155-3.09-4.765-3.284-1.674-.257-3.992 2.19-5.537 1.674-1.61-.515-1.996-3.863-3.477-4.636-1.481-.772-4.443.902-5.795-.064-1.352-.966-.708-4.314-1.867-5.473-1.16-1.159-4.507-.515-5.537-1.867-.966-1.352.643-4.314-.065-5.795-.772-1.48-4.12-1.867-4.636-3.477-.515-1.545 1.996-3.863 1.739-5.537-.451-1.61-3.542-3.026-3.542-4.7 0-1.675 3.091-3.091 3.349-4.7.257-1.675-2.254-3.928-1.739-5.538.515-1.61 3.928-1.996 4.636-3.477.773-1.48-.901-4.443.064-5.795.966-1.352 4.314-.708 5.538-1.867 1.159-1.159.515-4.507 1.867-5.473 1.352-.966 4.314.644 5.795-.064 1.48-.773 1.867-4.121 3.477-4.636 1.545-.515 3.863 1.931 5.537 1.674 1.738-.129 3.155-3.22 4.893-3.22 1.675 0 3.155 3.091 4.765 3.284 1.674.258 3.992-2.189 5.537-1.674 1.61.515 1.996 3.863 3.477 4.636 1.481.773 4.443-.901 5.795.064 1.352.966.708 4.314 1.867 5.473 1.16 1.16 4.508.515 5.538 1.868.966 1.352-.644 4.314.064 5.794.773 1.481 4.12 1.868 4.636 3.477.515 1.546-1.996 3.863-1.738 5.538.321 1.545 3.412 2.96 3.412 4.635z" stroke="#FF7A00" stroke-width="4"/><path d="M57.28 35.326c0 11.847-9.658 21.44-21.634 21.44s-21.634-9.593-21.634-21.44c0-11.848 9.658-21.441 21.634-21.441 11.911 0 21.634 9.594 21.634 21.44z" stroke="#FF7A00" stroke-width="4"/><path d="M35.645 26.183l2.833 5.666 6.374.966-4.636 4.442 1.095 6.246-5.666-2.962-5.73 2.962 1.094-6.246-4.572-4.442 6.375-.966 2.833-5.666z" stroke="#FF7A00" stroke-width="4"/></svg>