<svg width="64" height="81" fill="none" xmlns="http://www.w3.org/2000/svg"><path d="M62.91 77.43l-8.985-.615c-.492-2.707-1.477-5.17-2.892-7.446l4.861-5.723-5.784-5.785-5.6 4.739c-2.216-1.477-4.677-2.585-7.323-3.2l-.616-7.508h-8.184l-.616 7.262c-2.707.492-5.17 1.477-7.446 2.892l-5.723-4.862-5.785 5.785 4.739 5.6a21.45 21.45 0 00-3.2 7.262l-9.231.615M16.262 81c0-8.677 7.015-15.692 15.692-15.692" stroke="#FF7A00" stroke-width="4" stroke-linejoin="round"/><path d="M22.91 81a9.087 9.087 0 019.108-9.108A9.087 9.087 0 0141.126 81m20.058-10.585V22.477M40.939 2.23H2.785v68.185M45.863 17.8h12.923L45.863 4.938V17.8zm-34.398.123h21.477" stroke="#FF7A00" stroke-width="4" stroke-linejoin="round"/><path d="M11.465 44.446H28.51" stroke="#FF7A00" stroke-width="4" stroke-linejoin="round" stroke-dasharray="4 4"/><path d="M11.465 26.784h39.508m-39.508 8.861h39.508" stroke="#FF7A00" stroke-width="4" stroke-linejoin="round"/></svg>