<svg width="211" height="59" fill="none" xmlns="http://www.w3.org/2000/svg"><path d="M84.855 30.581h-5.317v-3.74h4.234c1.24 0 2.243-.188 3.011-.565.769-.392 1.333-.94 1.694-1.646.36-.706.541-1.537.541-2.494 0-.784-.204-1.505-.612-2.164-.392-.659-1.003-1.184-1.834-1.576-.832-.408-1.89-.611-3.176-.611-.972 0-1.858.172-2.658.517-.8.345-1.435.831-1.905 1.458-.47.612-.706 1.357-.706 2.235h-7.033c0-1.505.321-2.854.964-4.046a9.273 9.273 0 012.682-3.058c1.144-.847 2.462-1.49 3.952-1.929a16.555 16.555 0 014.704-.658c1.929 0 3.67.211 5.222.635 1.553.408 2.886 1.02 3.999 1.835a8.234 8.234 0 012.564 3.034c.596 1.207.894 2.611.894 4.21a7.14 7.14 0 01-.8 3.317c-.533 1.035-1.294 1.945-2.282 2.729s-2.171 1.404-3.552 1.858c-1.38.44-2.909.659-4.587.659zm-5.317-2.046h5.317c1.866 0 3.52.195 4.963.588 1.458.392 2.69.964 3.693 1.717a7.224 7.224 0 012.305 2.799c.533 1.098.8 2.36.8 3.787 0 1.6-.33 3.019-.988 4.258-.643 1.239-1.56 2.29-2.752 3.152-1.176.862-2.572 1.513-4.187 1.952-1.6.44-3.364.659-5.293.659a19.03 19.03 0 01-4.587-.565 14.03 14.03 0 01-4.14-1.787 9.128 9.128 0 01-2.964-3.082c-.737-1.254-1.105-2.76-1.105-4.516h7.08c0 .83.243 1.591.73 2.282.485.674 1.16 1.215 2.022 1.622.863.393 1.85.589 2.964.589 1.302 0 2.407-.204 3.317-.612.925-.408 1.623-.964 2.093-1.67.487-.721.73-1.513.73-2.376 0-.925-.126-1.71-.377-2.352a3.83 3.83 0 00-1.105-1.576c-.487-.424-1.09-.73-1.812-.918-.705-.188-1.529-.282-2.47-.282h-4.234v-3.67zm32.909 4.351L99.392 12.751h8.774l7.668 13.878h5.951l-.917 6.257h-8.421zm3.34-1.082L107.672 47h-8.798l11.221-19.289 5.692 4.093zm10.609-19.053V47h-7.01V12.75h7.01zm19.712 0l-12.867 20.135h-8.374l-.917-6.257h5.904l7.48-13.878h8.774zM137.828 47l-7.927-15.196 5.716-4.093L146.626 47h-8.798zm34.297-34.25v5.529h-15.408V47h-7.033V12.75h22.441zm-17.831 12.491h7.998c2.697 0 5.018.447 6.963 1.341 1.944.894 3.442 2.148 4.493 3.764 1.05 1.615 1.576 3.497 1.576 5.645 0 1.631-.298 3.121-.894 4.47a9.888 9.888 0 01-2.611 3.481c-1.129.972-2.494 1.725-4.093 2.258-1.6.533-3.411.8-5.434.8h-12.608V12.75h7.08v28.746h5.528c1.349 0 2.462-.251 3.34-.753.878-.502 1.537-1.168 1.976-2 .455-.846.682-1.78.682-2.799 0-.972-.227-1.85-.682-2.634-.439-.8-1.098-1.427-1.976-1.882-.878-.455-1.991-.682-3.34-.682h-7.998V25.24zm32.438 10.656l13.761-23.146h7.057V47h-7.057V23.853L186.732 47h-7.057V12.75h7.057v23.147z" fill="#fff"/><g opacity=".6"><path d="M28.406 52.015l27.12-10.717v4.509l-27.12 10.716v-4.508z" fill="#7A8396"/><path d="M28.404 52.014l27.12-10.716L27.12 33.98 0 44.697l28.404 7.317z" fill="#9A9EB0"/><g style="mix-blend-mode:multiply"><mask id="mask0_15_2" style="mask-type:alpha" maskUnits="userSpaceOnUse" x="0" y="33" width="56" height="20"><path d="M28.404 52.014l27.12-10.716L27.12 33.98 0 44.697l28.404 7.317z" fill="#9A9EB0"/></mask><g style="mix-blend-mode:multiply" filter="url(#filter0_f_15_2)" mask="url(#mask0_15_2)"><path d="M28.276 48.338l21.598-8.532-22.62-5.825-21.598 8.531 22.62 5.826z" fill="#9A9EB0"/></g></g><path d="M28.404 52.015L0 44.697v4.509l28.404 7.317v-4.508z" fill="#BCC3D3"/></g><g opacity=".7"><path d="M28.406 43.93l27.12-10.716v4.509l-27.12 10.716v-4.508z" fill="#7A8396"/><path d="M28.404 43.93l27.12-10.716-28.404-7.317L0 36.612l28.404 7.318z" fill="#9A9EB0"/><g style="mix-blend-mode:multiply"><mask id="mask1_15_2" style="mask-type:alpha" maskUnits="userSpaceOnUse" x="0" y="25" width="56" height="19"><path d="M28.404 43.93l27.12-10.716-28.404-7.317L0 36.612l28.404 7.318z" fill="#9A9EB0"/></mask><g style="mix-blend-mode:multiply" filter="url(#filter1_f_15_2)" mask="url(#mask1_15_2)"><path d="M28.276 40.254l21.598-8.531-22.62-5.826-21.598 8.531 22.62 5.826z" fill="#9A9EB0"/></g></g><path d="M28.404 43.931L0 36.613v4.509l28.404 7.318v-4.51z" fill="#BCC3D3"/></g><g opacity=".8"><path d="M28.406 35.547l27.12-10.716v4.509l-27.12 10.716v-4.508z" fill="#7A8396"/><path d="M28.404 35.547l27.12-10.716-28.404-7.318L0 28.23l28.404 7.317z" fill="#9A9EB0"/><g style="mix-blend-mode:multiply"><mask id="mask2_15_2" style="mask-type:alpha" maskUnits="userSpaceOnUse" x="0" y="17" width="56" height="19"><path d="M28.404 35.547l27.12-10.716-28.404-7.318L0 28.23l28.404 7.317z" fill="#9A9EB0"/></mask><g style="mix-blend-mode:multiply" filter="url(#filter2_f_15_2)" mask="url(#mask2_15_2)"><path d="M28.276 31.871l21.598-8.532-22.62-5.826-21.598 8.532 22.62 5.826z" fill="#9A9EB0"/></g></g><path d="M28.404 35.548L0 28.23v4.509l28.404 7.317v-4.508z" fill="#BCC3D3"/></g><g opacity=".9"><path d="M28.406 27.166l27.12-10.716v4.508l-27.12 10.717v-4.509z" fill="#7A8396"/><path d="M28.404 27.166l27.12-10.716L27.12 9.132 0 19.848l28.404 7.318z" fill="#9A9EB0"/><g style="mix-blend-mode:multiply"><mask id="mask3_15_2" style="mask-type:alpha" maskUnits="userSpaceOnUse" x="0" y="9" width="56" height="19"><path d="M28.404 27.166l27.12-10.716L27.12 9.132 0 19.848l28.404 7.318z" fill="#9A9EB0"/></mask><g style="mix-blend-mode:multiply" filter="url(#filter3_f_15_2)" mask="url(#mask3_15_2)"><path d="M28.276 23.49l21.598-8.532-22.62-5.826-21.598 8.532 22.62 5.826z" fill="#9A9EB0"/></g></g><path d="M28.404 27.166L0 19.85v4.508l28.404 7.318v-4.509z" fill="#BCC3D3"/></g><path d="M28.406 18.784l27.12-10.716v4.508l-27.12 10.717v-4.509z" fill="#7A8396"/><path d="M28.404 18.784l27.12-10.716L27.12.75 0 11.466l28.404 7.318z" fill="#9A9EB0"/><path d="M28.404 18.785L0 11.467v4.508l28.404 7.318v-4.508z" fill="#BCC3D3"/><defs><filter id="filter0_f_15_2" x="1.666" y="29.99" width="52.199" height="22.339" filterUnits="userSpaceOnUse" color-interpolation-filters="sRGB"><feFlood flood-opacity="0" result="BackgroundImageFix"/><feBlend in="SourceGraphic" in2="BackgroundImageFix" result="shape"/><feGaussianBlur stdDeviation="1.995" result="effect1_foregroundBlur_15_2"/></filter><filter id="filter1_f_15_2" x="1.666" y="21.906" width="52.199" height="22.339" filterUnits="userSpaceOnUse" color-interpolation-filters="sRGB"><feFlood flood-opacity="0" result="BackgroundImageFix"/><feBlend in="SourceGraphic" in2="BackgroundImageFix" result="shape"/><feGaussianBlur stdDeviation="1.995" result="effect1_foregroundBlur_15_2"/></filter><filter id="filter2_f_15_2" x="1.666" y="13.523" width="52.199" height="22.339" filterUnits="userSpaceOnUse" color-interpolation-filters="sRGB"><feFlood flood-opacity="0" result="BackgroundImageFix"/><feBlend in="SourceGraphic" in2="BackgroundImageFix" result="shape"/><feGaussianBlur stdDeviation="1.995" result="effect1_foregroundBlur_15_2"/></filter><filter id="filter3_f_15_2" x="1.666" y="5.141" width="52.199" height="22.339" filterUnits="userSpaceOnUse" color-interpolation-filters="sRGB"><feFlood flood-opacity="0" result="BackgroundImageFix"/><feBlend in="SourceGraphic" in2="BackgroundImageFix" result="shape"/><feGaussianBlur stdDeviation="1.995" result="effect1_foregroundBlur_15_2"/></filter></defs></svg>