<svg width="330" height="59" fill="none" xmlns="http://www.w3.org/2000/svg"><path d="M84.855 30.581h-5.317v-3.74h4.234c1.24 0 2.243-.188 3.011-.565.769-.392 1.333-.94 1.694-1.646.36-.706.541-1.537.541-2.494 0-.784-.204-1.505-.612-2.164-.392-.659-1.003-1.184-1.834-1.576-.832-.408-1.89-.611-3.176-.611-.972 0-1.858.172-2.658.517-.8.345-1.435.831-1.905 1.458-.47.612-.706 1.357-.706 2.235h-7.033c0-1.505.321-2.854.964-4.046a9.273 9.273 0 012.682-3.058c1.144-.847 2.462-1.49 3.952-1.929a16.555 16.555 0 014.704-.658c1.929 0 3.67.211 5.222.635 1.553.408 2.886 1.02 3.999 1.835a8.234 8.234 0 012.564 3.034c.596 1.207.894 2.611.894 4.21a7.14 7.14 0 01-.8 3.317c-.533 1.035-1.294 1.945-2.282 2.729s-2.171 1.404-3.552 1.858c-1.38.44-2.909.659-4.587.659zm-5.317-2.046h5.317c1.866 0 3.52.195 4.963.588 1.458.392 2.69.964 3.693 1.717a7.224 7.224 0 012.305 2.799c.533 1.098.8 2.36.8 3.787 0 1.6-.33 3.019-.988 4.258-.643 1.239-1.56 2.29-2.752 3.152-1.176.862-2.572 1.513-4.187 1.952-1.6.44-3.364.659-5.293.659a19.03 19.03 0 01-4.587-.565 14.03 14.03 0 01-4.14-1.787 9.128 9.128 0 01-2.964-3.082c-.737-1.254-1.105-2.76-1.105-4.516h7.08c0 .83.243 1.591.73 2.282.485.674 1.16 1.215 2.022 1.622.863.393 1.85.589 2.964.589 1.302 0 2.407-.204 3.317-.612.925-.408 1.623-.964 2.093-1.67.487-.721.73-1.513.73-2.376 0-.925-.126-1.71-.377-2.352a3.83 3.83 0 00-1.105-1.576c-.487-.424-1.09-.73-1.812-.918-.705-.188-1.529-.282-2.47-.282h-4.234v-3.67zm32.909 4.351L99.392 12.751h8.774l7.668 13.878h5.951l-.917 6.257h-8.421zm3.34-1.082L107.672 47h-8.798l11.221-19.289 5.692 4.093zm10.609-19.053V47h-7.01V12.75h7.01zm19.712 0l-12.867 20.135h-8.374l-.917-6.257h5.904l7.48-13.878h8.774zM137.828 47l-7.927-15.196 5.716-4.093L146.626 47h-8.798zm34.297-34.25v5.529h-15.408V47h-7.033V12.75h22.441zm-17.831 12.491h7.998c2.697 0 5.018.447 6.963 1.341 1.944.894 3.442 2.148 4.493 3.764 1.05 1.615 1.576 3.497 1.576 5.645 0 1.631-.298 3.121-.894 4.47a9.888 9.888 0 01-2.611 3.481c-1.129.972-2.494 1.725-4.093 2.258-1.6.533-3.411.8-5.434.8h-12.608V12.75h7.08v28.746h5.528c1.349 0 2.462-.251 3.34-.753.878-.502 1.537-1.168 1.976-2 .455-.846.682-1.78.682-2.799 0-.972-.227-1.85-.682-2.634-.439-.8-1.098-1.427-1.976-1.882-.878-.455-1.991-.682-3.34-.682h-7.998V25.24zm32.438 10.656l13.761-23.146h7.057V47h-7.057V23.853L186.732 47h-7.057V12.75h7.057v23.147z" fill="#fff"/><path d="M231.552 14.147v8.01h-1.636v-6.454h-3.559v6.453h-1.636v-8.009h6.831zm5.091 1.58c.817 0 1.499.308 2.049.926.549.61.823 1.396.823 2.357 0 .96-.274 1.75-.823 2.368-.542.61-1.225.916-2.049.916-.831 0-1.495-.328-1.99-.984v3.707h-1.636v-9.154h1.636v.881c.488-.678 1.151-1.018 1.99-1.018zm-.377 5.01c.458 0 .835-.16 1.133-.48.305-.32.457-.736.457-1.247 0-.511-.148-.927-.446-1.247-.297-.32-.679-.48-1.144-.48-.465 0-.851.16-1.156.48-.305.32-.457.736-.457 1.247 0 .51.152.927.457 1.247.305.32.691.48 1.156.48zm5.078-4.073c.633-.625 1.408-.938 2.323-.938s1.689.313 2.323.938c.64.626.961 1.408.961 2.346 0 .946-.317 1.731-.95 2.357-.625.618-1.404.927-2.334.927-.923 0-1.701-.313-2.334-.939-.626-.625-.938-1.407-.938-2.345 0-.938.316-1.72.949-2.346zm3.479 1.099a1.53 1.53 0 00-1.156-.48c-.465 0-.854.16-1.167.48-.305.32-.458.736-.458 1.247 0 .51.153.927.458 1.247.313.32.702.48 1.167.48.465 0 .85-.16 1.156-.48.312-.32.469-.736.469-1.247 0-.511-.157-.927-.469-1.247zm7.301-1.9H254v6.293h-1.636v-2.23l.103-1.866-2.597 4.096h-1.888v-6.293h1.636v2.232l-.08 1.842 2.586-4.074zm7.696 2.964c.656.267.984.774.984 1.521 0 .626-.256 1.107-.767 1.442-.511.336-1.193.504-2.048.504-1.792 0-2.822-.752-3.089-2.254h1.659c.061.366.202.625.423.778.229.152.553.228.973.228.793 0 1.19-.27 1.19-.812 0-.45-.305-.675-.915-.675h-1.053V18.3h.881c.328 0 .557-.05.686-.148.138-.1.206-.256.206-.47 0-.495-.358-.743-1.075-.743-.687 0-1.083.27-1.19.812h-1.659c.252-1.35 1.209-2.025 2.872-2.025.808 0 1.46.16 1.956.48.496.321.744.775.744 1.362 0 .58-.259 1-.778 1.259zm6.419-.069c.755.221 1.132.748 1.132 1.579 0 .618-.209 1.076-.629 1.373-.419.297-.972.446-1.659.446h-3.329v-6.293h3.043c.702 0 1.251.119 1.648.355.404.236.606.648.606 1.236 0 .305-.069.557-.206.755-.137.19-.339.374-.606.55zm-.836-.995c0-.214-.057-.37-.171-.47-.107-.099-.298-.148-.572-.148h-1.27v1.213h1.27c.274 0 .465-.046.572-.138.114-.099.171-.251.171-.457zm-.446 3.112c.275 0 .469-.054.584-.16.114-.115.171-.29.171-.527 0-.229-.061-.396-.183-.503-.114-.107-.305-.16-.572-.16h-1.567v1.35h1.567zm4.176-4.21c.633-.626 1.407-.939 2.323-.939.915 0 1.689.313 2.322.938.641.626.961 1.408.961 2.346 0 .946-.316 1.731-.949 2.357-.626.618-1.404.927-2.334.927-.923 0-1.701-.313-2.334-.939-.626-.625-.939-1.407-.939-2.345 0-.938.317-1.72.95-2.346zm3.478 1.098c-.305-.32-.69-.48-1.155-.48-.466 0-.855.16-1.167.48-.306.32-.458.736-.458 1.247 0 .51.152.927.458 1.247.312.32.701.48 1.167.48.465 0 .85-.16 1.155-.48.313-.32.469-.736.469-1.247 0-.511-.156-.927-.469-1.247zm9.3 2.849h1.144v3.135h-1.636v-1.59h-4.725v1.59h-1.636v-3.135h1.121c.206-.176.358-.572.457-1.19l.573-3.559h4.702v4.749zm-4.004 0h2.368v-3.204h-1.671l-.343 2.094c-.076.488-.194.858-.354 1.11zm8.974 1.682c-.939 0-1.72-.313-2.346-.939-.618-.625-.927-1.407-.927-2.345 0-.938.309-1.72.927-2.346.626-.625 1.411-.938 2.357-.938.793 0 1.484.229 2.071.687.595.45.95 1.064 1.064 1.842h-1.682a1.28 1.28 0 00-.538-.755 1.592 1.592 0 00-.915-.264c-.496 0-.892.164-1.19.492-.297.328-.442.755-.435 1.282-.007.526.138.953.435 1.281.305.328.698.492 1.179.492.351 0 .66-.088.926-.263.267-.175.447-.43.538-.767h1.682c-.122.801-.48 1.427-1.075 1.877-.588.442-1.278.664-2.071.664zm9.116-6.43v1.544h-1.945v4.748h-1.636v-4.748h-1.933v-1.545h5.514zm5.268 2.894c.755.221 1.133.748 1.133 1.579 0 .618-.21 1.076-.629 1.373-.42.297-.973.446-1.66.446h-3.329v-6.293h3.043c.702 0 1.251.119 1.648.355.404.236.606.648.606 1.236 0 .305-.068.557-.206.755-.137.19-.339.374-.606.55zm-.835-.995c0-.214-.057-.37-.172-.47-.107-.099-.297-.148-.572-.148h-1.27v1.213h1.27c.275 0 .465-.046.572-.138.115-.099.172-.251.172-.457zm-.446 3.112c.274 0 .469-.054.583-.16.115-.115.172-.29.172-.527 0-.229-.061-.396-.183-.503-.115-.107-.305-.16-.572-.16h-1.568v1.35h1.568zm4.175-4.21c.633-.626 1.408-.939 2.323-.939s1.69.313 2.323.938c.64.626.961 1.408.961 2.346 0 .946-.317 1.731-.95 2.357-.625.618-1.403.927-2.334.927-.923 0-1.701-.313-2.334-.939-.626-.625-.938-1.407-.938-2.345 0-.938.316-1.72.949-2.346zm3.479 1.098a1.53 1.53 0 00-1.156-.48c-.465 0-.854.16-1.167.48-.305.32-.458.736-.458 1.247 0 .51.153.927.458 1.247.313.32.702.48 1.167.48.465 0 .85-.16 1.156-.48.312-.32.469-.736.469-1.247 0-.511-.157-.927-.469-1.247zm-72.585 17.393h-2.083l-2.574-2.746v2.746h-1.636V32.41l-2.574 2.746h-2.083l3.055-3.295-2.86-2.998h2.082l2.38 2.62v-2.62h1.636v2.62l2.38-2.62h2.082l-2.86 2.998 3.055 3.295zm3.265-6.43c1.03 0 1.842.355 2.437 1.064.602.71.862 1.59.778 2.643h-4.828c.053.488.228.862.526 1.121.297.26.667.39 1.11.39.32 0 .606-.07.858-.207a1.24 1.24 0 00.538-.583h1.693c-.221.71-.61 1.243-1.167 1.602-.557.358-1.194.538-1.911.538-.976 0-1.773-.31-2.391-.927-.618-.618-.927-1.4-.927-2.346 0-.946.309-1.731.927-2.357.618-.625 1.403-.938 2.357-.938zm-.012 1.35c-.389 0-.713.107-.972.32-.26.206-.443.485-.549.836h3.009a1.522 1.522 0 00-.527-.835c-.259-.214-.579-.32-.961-.32zm5.738-1.213h4.657v6.293h-1.636v-4.748h-1.625l-.378 2.288c-.274 1.732-1.018 2.598-2.231 2.598-.229 0-.484-.027-.766-.08v-1.477c.152.023.293.035.423.035.282 0 .492-.084.629-.252.145-.175.256-.503.332-.984l.595-3.673zm8.984-.137c1.03 0 1.842.355 2.437 1.064.602.71.862 1.59.778 2.643h-4.828c.053.488.228.862.526 1.121.297.26.667.39 1.11.39.32 0 .606-.07.858-.207a1.24 1.24 0 00.538-.583h1.693c-.221.71-.61 1.243-1.167 1.602-.557.358-1.194.538-1.911.538-.976 0-1.773-.31-2.391-.927-.618-.618-.927-1.4-.927-2.346 0-.946.309-1.731.927-2.357.618-.625 1.403-.938 2.357-.938zm-.012 1.35c-.389 0-.713.107-.972.32-.26.206-.443.485-.549.836h3.009a1.522 1.522 0 00-.527-.835c-.259-.214-.579-.32-.961-.32zm8.849 1.75c.656.268.984.775.984 1.523 0 .625-.256 1.106-.767 1.441-.511.336-1.194.504-2.048.504-1.793 0-2.822-.752-3.089-2.254h1.659c.061.366.202.625.423.778.229.152.553.228.973.228.793 0 1.19-.27 1.19-.812 0-.45-.306-.675-.916-.675h-1.052V31.3h.881c.328 0 .556-.05.686-.148.137-.1.206-.256.206-.47 0-.495-.358-.743-1.075-.743-.687 0-1.084.27-1.19.812h-1.659c.251-1.35 1.209-2.025 2.871-2.025.809 0 1.461.16 1.957.48.496.321.744.775.744 1.362 0 .58-.26 1-.778 1.259zm2.734-2.162c.633-.625 1.408-.938 2.323-.938s1.689.313 2.323.938c.64.626.961 1.408.961 2.346 0 .946-.317 1.731-.95 2.357-.626.618-1.404.927-2.334.927-.923 0-1.701-.313-2.334-.939-.626-.625-.938-1.407-.938-2.345 0-.938.316-1.72.949-2.346zm3.478 1.099c-.305-.32-.69-.48-1.155-.48-.465 0-.854.16-1.167.48-.305.32-.458.736-.458 1.247 0 .51.153.927.458 1.247.313.32.702.48 1.167.48.465 0 .85-.16 1.155-.48.313-.32.47-.736.47-1.247 0-.511-.157-.927-.47-1.247zm6.753-1.705c.793 0 1.453.278 1.979.835.534.557.801 1.282.801 2.174 0 .961-.305 1.74-.915 2.334-.603.595-1.362.892-2.277.892-.45 0-.87-.076-1.259-.228a3.05 3.05 0 01-1.052-.698c-.313-.313-.561-.732-.744-1.259-.183-.534-.275-1.148-.275-1.842 0-.847.096-1.575.286-2.185.191-.618.443-1.11.756-1.476a3.13 3.13 0 011.224-.858 6.052 6.052 0 011.556-.424 13.537 13.537 0 011.888-.114v1.533c-.565 0-1.041.02-1.43.057-.389.03-.756.1-1.099.206-.335.1-.606.24-.812.424a1.887 1.887 0 00-.481.698c-.122.29-.198.644-.229 1.064a2.06 2.06 0 01.859-.836 2.567 2.567 0 011.224-.297zm-.481 4.828c.466 0 .851-.156 1.156-.469.313-.32.469-.74.469-1.258 0-.511-.153-.923-.458-1.236-.297-.313-.675-.47-1.132-.47-.466 0-.859.161-1.179.481-.313.313-.469.721-.469 1.225 0 .518.153.938.458 1.258.312.313.698.47 1.155.47zm7.428-5.16c1.03 0 1.843.355 2.437 1.064.603.71.862 1.59.778 2.643h-4.828c.054.488.229.862.526 1.121.298.26.668.39 1.11.39.321 0 .607-.07.858-.207a1.24 1.24 0 00.538-.583h1.694c-.222.71-.611 1.243-1.168 1.602-.556.358-1.193.538-1.91.538-.977 0-1.774-.31-2.392-.927-.617-.618-.926-1.4-.926-2.346 0-.946.309-1.731.926-2.357.618-.625 1.404-.938 2.357-.938zm-.011 1.35c-.389 0-.713.107-.973.32a1.649 1.649 0 00-.549.836h3.009a1.52 1.52 0 00-.526-.835c-.259-.214-.58-.32-.961-.32zm9.273-1.213v1.545h-1.945v4.748h-1.636v-4.748h-1.934v-1.545h5.515zm1.517.801c.633-.625 1.407-.938 2.322-.938.916 0 1.69.313 2.323.938.641.626.961 1.408.961 2.346 0 .946-.317 1.731-.95 2.357-.625.618-1.403.927-2.334.927-.923 0-1.701-.313-2.334-.939-.625-.625-.938-1.407-.938-2.345 0-.938.316-1.72.95-2.346zm3.478 1.099c-.305-.32-.691-.48-1.156-.48-.465 0-.854.16-1.167.48-.305.32-.458.736-.458 1.247 0 .51.153.927.458 1.247.313.32.702.48 1.167.48.465 0 .851-.16 1.156-.48.313-.32.469-.736.469-1.247 0-.511-.156-.927-.469-1.247zm7.622-1.9h1.636v6.293h-1.636v-2.425h-2.826v2.425h-1.637v-6.293h1.637v2.323h2.826v-2.323zm7.293 0h1.636v6.293h-1.636v-2.425h-2.826v2.425h-1.636v-6.293h1.636v2.323h2.826v-2.323zm6.069 1.843c.656 0 1.202.171 1.637.514.434.344.652.897.652 1.66 0 .396-.069.747-.206 1.052-.13.297-.309.534-.538.71a2.234 2.234 0 01-.744.388 2.847 2.847 0 01-.858.126h-3.18v-6.293h1.636v1.843h1.601zm3.135-1.843h1.637v6.293h-1.637v-6.293zm-3.249 4.737c.496 0 .744-.24.744-.72 0-.489-.244-.733-.732-.733h-1.499V33.6h1.487zm12.11 1.556h-1.945l-1.293-1.98-1.224 1.98h-1.968l2.22-3.25-2.105-3.043h1.945l1.19 1.843 1.11-1.843h1.967l-2.105 3.09 2.208 3.203zm-98.206 13h-2.094l-2.574-2.746v2.746h-1.636v-6.293h1.636v2.62l2.391-2.62h2.083l-2.872 2.998 3.066 3.295zm.84-5.492c.634-.625 1.408-.938 2.323-.938s1.69.313 2.323.938c.64.626.961 1.408.961 2.346 0 .946-.317 1.731-.95 2.357-.625.618-1.403.927-2.334.927-.923 0-1.701-.313-2.334-.939-.625-.625-.938-1.407-.938-2.345 0-.938.316-1.72.949-2.346zm3.479 1.099c-.305-.32-.691-.48-1.156-.48-.465 0-.854.16-1.167.48-.305.32-.458.736-.458 1.247 0 .51.153.927.458 1.247.313.32.702.48 1.167.48.465 0 .851-.16 1.156-.48.312-.32.469-.736.469-1.247 0-.511-.157-.927-.469-1.247zm7.622-1.9h1.636v6.293h-1.636v-2.425h-2.827v2.425h-1.636v-6.293h1.636v2.323h2.827v-2.323zm5.954 6.43c-.938 0-1.72-.312-2.345-.938-.618-.625-.927-1.407-.927-2.345 0-.938.309-1.72.927-2.346.625-.625 1.411-.938 2.357-.938.793 0 1.483.229 2.071.687.595.45.949 1.064 1.064 1.842h-1.682a1.284 1.284 0 00-.538-.756 1.592 1.592 0 00-.915-.263c-.496 0-.893.164-1.19.492-.298.328-.442.755-.435 1.282-.007.526.137.953.435 1.281.305.328.698.492 1.178.492.351 0 .66-.087.927-.263.267-.175.446-.43.538-.767h1.682c-.122.801-.481 1.427-1.076 1.877-.587.442-1.277.663-2.071.663zm9.117-6.43v1.545h-1.945v4.748h-1.636v-4.748h-1.934v-1.545h5.515zm4.467-.137c.816 0 1.499.309 2.048.927.549.61.824 1.396.824 2.357 0 .96-.275 1.75-.824 2.368-.542.61-1.224.916-2.048.916-.832 0-1.495-.328-1.991-.984v3.707h-1.636v-9.154h1.636v.881c.488-.678 1.152-1.018 1.991-1.018zm-.378 5.011c.458 0 .836-.16 1.133-.48.305-.32.458-.736.458-1.247 0-.511-.149-.927-.447-1.247-.297-.32-.678-.48-1.144-.48-.465 0-.85.16-1.155.48-.305.32-.458.736-.458 1.247 0 .51.153.927.458 1.247.305.32.69.48 1.155.48zm8.226-4.874h1.751l-4.097 9.154h-1.739l1.648-3.696-2.426-5.458h1.739l1.557 3.685 1.567-3.685zm8.834 6.293h-2.094l-2.574-2.746v2.746h-1.636v-6.293h1.636v2.62l2.391-2.62h2.082l-2.871 2.998 3.066 3.295zm6.589-1.544h1.144v3.135h-1.636v-1.59h-5.32v-6.294h1.636v4.749h2.54v-4.749h1.636v4.749zm6.059-4.749h1.876v6.293h-1.636v-2.23l.103-1.866-2.597 4.096h-1.888v-6.293h1.636v2.231l-.08 1.843 2.586-4.074zm7.433-1.281a1.978 1.978 0 01-1.35.492 2.02 2.02 0 01-1.362-.492c-.374-.328-.56-.77-.56-1.327v-.31h1.292v.264c0 .19.058.343.172.458a.618.618 0 00.458.171c.19 0 .343-.057.457-.171a.617.617 0 00.172-.458v-.263h1.281v.309c0 .556-.186.999-.56 1.327zm-.218 1.281h1.877v6.293h-1.636v-2.23l.103-1.866-2.598 4.096h-1.887v-6.293h1.636v2.231l-.08 1.843 2.585-4.074z" fill="#7A8396"/><g opacity=".6"><path d="M28.406 52.015l27.12-10.717v4.509l-27.12 10.716v-4.508z" fill="#7A8396"/><path d="M28.404 52.014l27.12-10.716L27.12 33.98 0 44.697l28.404 7.317z" fill="#9A9EB0"/><g style="mix-blend-mode:multiply"><mask id="mask0_13_121" style="mask-type:alpha" maskUnits="userSpaceOnUse" x="0" y="33" width="56" height="20"><path d="M28.404 52.014l27.12-10.716L27.12 33.98 0 44.697l28.404 7.317z" fill="#9A9EB0"/></mask><g style="mix-blend-mode:multiply" filter="url(#filter0_f_13_121)" mask="url(#mask0_13_121)"><path d="M28.276 48.338l21.598-8.532-22.62-5.825-21.598 8.531 22.62 5.826z" fill="#9A9EB0"/></g></g><path d="M28.404 52.015L0 44.697v4.509l28.404 7.317v-4.508z" fill="#BCC3D3"/></g><g opacity=".7"><path d="M28.406 43.93l27.12-10.716v4.509l-27.12 10.716v-4.508z" fill="#7A8396"/><path d="M28.404 43.93l27.12-10.716-28.404-7.317L0 36.612l28.404 7.318z" fill="#9A9EB0"/><g style="mix-blend-mode:multiply"><mask id="mask1_13_121" style="mask-type:alpha" maskUnits="userSpaceOnUse" x="0" y="25" width="56" height="19"><path d="M28.404 43.93l27.12-10.716-28.404-7.317L0 36.612l28.404 7.318z" fill="#9A9EB0"/></mask><g style="mix-blend-mode:multiply" filter="url(#filter1_f_13_121)" mask="url(#mask1_13_121)"><path d="M28.276 40.254l21.598-8.531-22.62-5.826-21.598 8.531 22.62 5.826z" fill="#9A9EB0"/></g></g><path d="M28.404 43.931L0 36.613v4.509l28.404 7.318v-4.51z" fill="#BCC3D3"/></g><g opacity=".8"><path d="M28.406 35.547l27.12-10.716v4.509l-27.12 10.716v-4.508z" fill="#7A8396"/><path d="M28.404 35.547l27.12-10.716-28.404-7.318L0 28.23l28.404 7.317z" fill="#9A9EB0"/><g style="mix-blend-mode:multiply"><mask id="mask2_13_121" style="mask-type:alpha" maskUnits="userSpaceOnUse" x="0" y="17" width="56" height="19"><path d="M28.404 35.547l27.12-10.716-28.404-7.318L0 28.23l28.404 7.317z" fill="#9A9EB0"/></mask><g style="mix-blend-mode:multiply" filter="url(#filter2_f_13_121)" mask="url(#mask2_13_121)"><path d="M28.276 31.871l21.598-8.532-22.62-5.826-21.598 8.532 22.62 5.826z" fill="#9A9EB0"/></g></g><path d="M28.404 35.548L0 28.23v4.509l28.404 7.317v-4.508z" fill="#BCC3D3"/></g><g opacity=".9"><path d="M28.406 27.166l27.12-10.716v4.508l-27.12 10.717v-4.509z" fill="#7A8396"/><path d="M28.404 27.166l27.12-10.716L27.12 9.132 0 19.848l28.404 7.318z" fill="#9A9EB0"/><g style="mix-blend-mode:multiply"><mask id="mask3_13_121" style="mask-type:alpha" maskUnits="userSpaceOnUse" x="0" y="9" width="56" height="19"><path d="M28.404 27.166l27.12-10.716L27.12 9.132 0 19.848l28.404 7.318z" fill="#9A9EB0"/></mask><g style="mix-blend-mode:multiply" filter="url(#filter3_f_13_121)" mask="url(#mask3_13_121)"><path d="M28.276 23.49l21.598-8.532-22.62-5.826-21.598 8.532 22.62 5.826z" fill="#9A9EB0"/></g></g><path d="M28.404 27.166L0 19.85v4.508l28.404 7.318v-4.509z" fill="#BCC3D3"/></g><path d="M28.406 18.784l27.12-10.716v4.508l-27.12 10.717v-4.509z" fill="#7A8396"/><path d="M28.404 18.784l27.12-10.716L27.12.75 0 11.466l28.404 7.318z" fill="#9A9EB0"/><path d="M28.404 18.785L0 11.467v4.508l28.404 7.318v-4.508z" fill="#BCC3D3"/><defs><filter id="filter0_f_13_121" x="1.666" y="29.99" width="52.199" height="22.339" filterUnits="userSpaceOnUse" color-interpolation-filters="sRGB"><feFlood flood-opacity="0" result="BackgroundImageFix"/><feBlend in="SourceGraphic" in2="BackgroundImageFix" result="shape"/><feGaussianBlur stdDeviation="1.995" result="effect1_foregroundBlur_13_121"/></filter><filter id="filter1_f_13_121" x="1.666" y="21.906" width="52.199" height="22.339" filterUnits="userSpaceOnUse" color-interpolation-filters="sRGB"><feFlood flood-opacity="0" result="BackgroundImageFix"/><feBlend in="SourceGraphic" in2="BackgroundImageFix" result="shape"/><feGaussianBlur stdDeviation="1.995" result="effect1_foregroundBlur_13_121"/></filter><filter id="filter2_f_13_121" x="1.666" y="13.523" width="52.199" height="22.339" filterUnits="userSpaceOnUse" color-interpolation-filters="sRGB"><feFlood flood-opacity="0" result="BackgroundImageFix"/><feBlend in="SourceGraphic" in2="BackgroundImageFix" result="shape"/><feGaussianBlur stdDeviation="1.995" result="effect1_foregroundBlur_13_121"/></filter><filter id="filter3_f_13_121" x="1.666" y="5.141" width="52.199" height="22.339" filterUnits="userSpaceOnUse" color-interpolation-filters="sRGB"><feFlood flood-opacity="0" result="BackgroundImageFix"/><feBlend in="SourceGraphic" in2="BackgroundImageFix" result="shape"/><feGaussianBlur stdDeviation="1.995" result="effect1_foregroundBlur_13_121"/></filter></defs></svg>